<svg xmlns="http://www.w3.org/2000/svg" viewBox="0 0 326.09 317.24"><defs><style>.cls-1{fill:#402923;}.cls-2{fill:#ffefe3;}.cls-3{fill:#94d0d0;}.cls-4{fill:#f0ad80;}.cls-5{fill:#49a5a6;}.cls-6{fill:#f6d2b6;}</style></defs><title>Fichier 1</title><g id="Calque_2" data-name="Calque 2"><g id="Calque_1-2" data-name="Calque 1"><path class="cls-1" d="M326.06,154c.25,79.41-57,147.17-135.71,160.85C104,329.9,19.45,271.49,3,185.51-10.47,114.85,22,45,84.36,11.11,103.42.75,123.79-2.51,145.17,2A29.74,29.74,0,0,1,161,10.81c1.06,1.13,1.76,2.77,3.74.56C172.33,3,182.51.71,193.19.14,219.46-1.27,242.13,8.25,262.36,24c36.42,28.39,57.16,65.82,62.93,111.59.27,2.15.67,4.29.73,6.44C326.14,146,326.06,150,326.06,154ZM177,25.1c.82-4.77,3.17-8.8,6.6-12.71-9.34,2.52-13.63,7-14.47,14.63-.86,3.11-.42,6.25,0,9.33,1,6.65,3.86,8.45,11.07,7C176.89,37.63,176.79,31.39,177,25.1ZM157.14,27c-.82-7.77-6-13.09-14.1-14.17a24.93,24.93,0,0,1,6.24,12.25c.26,6.41,0,12.76-3.48,18.67,8.83.36,10.67-1.15,11.48-8.89C157.56,32.26,157.88,29.63,157.14,27Zm-44,270.08.53.68.28-.41-.73-.37c.23-1.89-1.33-3-2.14-4.31-13.57-22.76-9.24-47.86,11.15-64.69,6.17-5.09,13-9.12,19.89-13.12l13.2-6.54c-14.28-1.73-26.68-5.19-38.19-11.55a93.27,93.27,0,0,1-29.26-25.34,24.4,24.4,0,0,0-1.64,2.46c-15.25,31.5-18.66,64.8-15,99.16a5.46,5.46,0,0,0,2.57,4.06c5.47,3.76,10.82,7.73,17,10.37C97.83,291.62,105,295.38,113.12,297.1ZM211,26.65c.17,3.76,2.88,5.93,5.46,7.89,4.09,3.11,8.49,5.83,12.76,8.69,12.9,8.65,23.72,19.25,31.12,33.07,1.68,3.14,2,6.4-1.39,8.25s-6.23.42-8-3.28c-3.07-6.34-7.65-11.59-12.43-16.74-7.59-8.17-17.27-13.46-26.23-19.75C205,39.69,200,33.18,199.22,24c.14-4.41,2.47-8,4.6-11.68-7.09.19-12.37,4-15,10.66-3.07,8.56-.73,16.85,6.5,22,4.07,2.88,8.41,5.37,12.63,8,17.54,11.09,32.12,24.84,39.68,44.73,1,2.64,3,2.73,5,3.36a27.46,27.46,0,0,1-2,53c-5,1.18-6.42,4.51-4,9.12a170.51,170.51,0,0,1,10.61,24.71c5.19,15,7.66,30.57,9.41,46.28.17,10.14.64,20.27-.54,31.11,1.53-1.14,2.34-1.69,3.08-2.31a27.57,27.57,0,0,0,2.17-2.05c31.68-33.3,46.64-72.81,43.6-118.79A136.75,136.75,0,0,0,302,91.84c-2.3-4.82-5.19-9.32-9.95-12.19C286.9,76.54,282,77.38,278,82c-3.71,4.13-3.07,8.39-.41,12.74a103.48,103.48,0,0,1,10.93,24.48c5.2,17.34,6.15,34.58-1.4,51.58-1.52,3.43-3.5,6.54-7.85,4.55s-3.52-5.39-1.89-8.9a50.84,50.84,0,0,0,4.48-26.7,92.93,92.93,0,0,0-13.17-39.33,22.7,22.7,0,0,1-3.62-10.21c-.74-10.44,4.5-17.23,13.16-22l10-1.38c-15.4-21.35-33.63-38.42-57.29-49.15a28.14,28.14,0,0,0-8.09-2.33C215,14.39,209.14,20.19,211,26.65ZM48.29,82c-5-5.73-12.24-5.46-18,.79A42.68,42.68,0,0,0,22,96.85C.41,154.61,9.67,207.13,49,254.43c3.13,3.76,6.19,7.76,11.06,10.62-1.16-10.22-.67-20-.6-29.7a6.28,6.28,0,0,0,.44-1.42c1.71-25.36,8.18-49.38,20.23-71.83,1.89-3.53,0-7-4.2-8-12.61-3-21.28-13.41-21.61-25.93-.34-12.69,7.44-23.47,20-27.16,2.75-.81,4-2.33,5-4.79a81.48,81.48,0,0,1,24.58-32.73A246.84,246.84,0,0,1,129.3,46.06c8.52-5.24,11.41-13.8,8.13-23.08-2.64-6.73-8.07-10.6-15.16-10.58,3.1,3.45,3.93,7.59,4.46,11.83-.06,6.56-3,11.77-7.58,16.24-3.94,3.87-8.59,6.77-13.24,9.7C93,58.26,82.05,68.21,75,81.95c-1.71,3.33-4.52,4.19-7.49,2.75C64.31,83.14,64,80.07,65.58,77,69,70.07,73.77,64.15,78.9,58.42,87.36,49,98.29,42.85,108.43,35.65c3.67-2.6,7.06-5.6,7.52-10.58s-2.63-7.24-6.46-8.86c-4.81-2-9.49-.67-13.94,1.31A128.36,128.36,0,0,0,59.92,41.67a141.55,141.55,0,0,0-21.66,25.2L48,68.19c.53.36,1,.77,1.6,1.09,11.62,6.55,15,19.33,8.22,30.73-1,1.71-2.08,3.41-2.94,5.2-9.77,20.35-15.64,41-5.27,63.1A4.94,4.94,0,0,1,47,175.4c-3.13,1.43-5.48.08-7-2.83a60.14,60.14,0,0,1-6.32-30.87c.83-17.13,6.43-32.78,15.16-47.41C51.44,90,51.79,85.92,48.29,82Zm180,209.13c2.52-1.58,5.73-1.81,7.93-4,6.07-2.46,11.2-6.48,16.56-10.11a5.85,5.85,0,0,0,2.44-4.66c2.64-25.43,1.34-50.54-6-75.15-2.64-8.81-5.6-17.51-10.79-25.8A87.94,87.94,0,0,1,204.72,199c-10.37,4.9-21.42,8.18-31.82,13.05-15.37,7.2-31.25,13.44-44.44,24.54-12.17,10.24-17.31,23.11-13.2,38.75,4,15.21,13.52,25.4,29.16,29,12,2.77,24.16,2.1,36.27.66C197.31,303.06,213.34,299,228.24,291.11Zm-46-203-2.43,1.7c-9.65,6.77-20.21,8-31.39,5C146,94.16,143.63,93,143.33,90s1.45-4.62,3.94-5.66A13.57,13.57,0,0,0,152.65,80a14.36,14.36,0,0,0,.71-15.91c-2.71-4.47-8.4-7.77-12.46-6.59-19.32,5.62-35.32,15.85-45.68,33.68a22.16,22.16,0,0,0-1.78,2.34C79,118.64,83.32,151.07,104.18,172.19c19.59,19.83,43.69,27.68,71,23.62,29.54-4.4,51.62-19.87,62.32-48.59,6.61-17.76,5.4-35.49-4.25-52.23a2.15,2.15,0,0,0-1.06-1.9,1.79,1.79,0,0,0-1.07-1.93A64.86,64.86,0,0,0,203.2,65c-2-1.08-4.07-2.11-6.05-3.26-2.3-1.34-3.27-.57-3.38,1.9C193.36,73.4,188.81,81.26,182.22,88.15ZM75.16,142.57c-2.31-10.3-2.33-19.79-.89-30.41-6.35,4.39-9.47,9.13-9.18,15.67S68.3,139.14,75.16,142.57Zm176.13-.29c7.26-3.76,10.45-9.41,9.87-16.56-.47-5.87-4-10.72-9.14-12.31C253.71,122.95,253.25,132.36,251.29,142.28Z"/><path class="cls-2" d="M95.22,91.21c10.36-17.83,26.36-28.06,45.68-33.68,4.07-1.18,9.75,2.12,12.46,6.59A14.36,14.36,0,0,1,152.65,80a13.57,13.57,0,0,1-5.38,4.35c-2.49,1-4.24,2.7-3.94,5.66s2.63,4.12,5.08,4.78c11.18,3,21.73,1.79,31.39-5l2.43-1.7c3.15.08,5.16-2.08,7.21-3.92A57,57,0,0,0,203.2,65a64.86,64.86,0,0,1,27.87,26.21,1.76,1.76,0,0,0,1.07,1.93A2.15,2.15,0,0,1,233.2,95c-1.91,1.92-.07,3.82.32,5.5A75.18,75.18,0,0,1,235.36,123c-1.3,18.9-9.58,33.91-23.7,46-18.06,15.44-39,20.63-62.22,16.6a70.57,70.57,0,0,1-42.7-24.44C90.36,142,87,120.26,94,96.5,94.55,94.74,95.39,93.11,95.22,91.21Zm67.6,77c9.78-.3,18-3.56,23.19-12.21,2.62-4.33,2-8.09-1.33-10.08s-6.54-.92-9.35,3.49c-5.3,8.3-19,8.53-24,.18-2.34-3.85-5-5.88-9.29-3.76-3.52,1.73-4.11,6.08-1.39,10.43C145.71,164.42,153.54,167.71,162.82,168.18Zm39.29-34.09c9-.46,16.83-3.75,22-11.85,2-3.18,2-6.46-1.18-8.87s-6.24-1.57-8.77,1.36c-7.35,8.51-14.15,9.09-23.07,2-3-2.39-6.28-2.78-9,0-2.89,2.94-2.49,6.28.42,9.27C187.83,131.34,194.4,133.67,202.11,134.09Zm-78,0c7.11-.31,13.48-2.3,18.69-7.23,3.69-3.49,4.25-7.1,1.65-10s-6.33-2.5-10.06.71c-7,6.05-16.08,5.24-21.83-2.16-2.52-3.24-5.34-4.47-9-2.23-3.2,2-3.65,6-1.09,9.65C107.7,130.36,115.22,133.6,124.08,134.07Z"/><path class="cls-3" d="M236.17,287.09c-2.2,2.21-5.41,2.44-7.93,4a17.82,17.82,0,0,0-3.46.27c-20.35,5.62-41.11,7.41-62.15,6.8a44.94,44.94,0,0,1-27.24-9.54c-13.92-10.9-15.17-30-2.88-42.51,9.95-10.15,22.75-15.5,35.36-21,20.23-8.9,40.88-17,59.08-30.85a170.82,170.82,0,0,1,6.73,22.64c3.26,14.32,4.35,28.86,4.36,43.45C238.05,269.24,236.84,278.16,236.17,287.09Z"/><path class="cls-4" d="M137.43,23c3.28,9.28.39,17.83-8.13,23.08a246.84,246.84,0,0,0-25.49,17.44A81.48,81.48,0,0,0,79.23,96.24c-1,2.46-2.24,4-5,4.79-12.51,3.7-20.29,14.48-20,27.16.33,12.52,9,22.92,21.61,25.93,4.16,1,6.1,4.46,4.2,8-12,22.46-18.52,46.47-20.23,71.83a6.29,6.29,0,0,1-.45,1.42c-1.34-1.48-2.59-3-4-4.42-21.67-20.71-29.12-47.06-29-75.88a135.77,135.77,0,0,1,7.16-43.5C37.14,101.08,40.17,90.23,48.29,82c3.5,3.94,3.15,8.06.61,12.31-8.72,14.63-14.32,30.28-15.16,47.41a60.14,60.14,0,0,0,6.32,30.87c1.49,2.91,3.85,4.26,7,2.83a4.94,4.94,0,0,0,2.6-7.11c-10.37-22.07-4.5-42.74,5.27-63.1.86-1.79,1.92-3.49,2.94-5.2,6.82-11.4,3.4-24.18-8.22-30.73-.56-.32-1.07-.72-1.6-1.09A7.44,7.44,0,0,1,49,65.93C61,52.59,73.69,39.85,89.56,31,97.66,26.51,106,21.89,116,25.07c-.46,5-3.85,8-7.52,10.58C98.29,42.85,87.36,49,78.9,58.42,73.77,64.15,69,70.07,65.58,77c-1.54,3.09-1.27,6.17,1.94,7.72,3,1.44,5.78.58,7.49-2.75,7-13.74,18-23.68,30.9-31.77,4.65-2.92,9.3-5.82,13.24-9.7,4.55-4.47,7.52-9.68,7.58-16.24C130.17,22.79,133.83,23.14,137.43,23Z"/><path class="cls-4" d="M266.76,234.18c-1.75-15.71-4.22-31.26-9.41-46.28a170.51,170.51,0,0,0-10.61-24.71c-2.46-4.62-1-7.94,4-9.12a27.46,27.46,0,0,0,2-53c-2-.62-4-.72-5-3.36C240.11,77.82,225.52,64.07,208,53c-4.22-2.67-8.56-5.16-12.63-8-7.23-5.11-9.57-13.39-6.5-22,3.48.09,7-.07,10.36,1,.78,9.17,5.79,15.68,13.05,20.78,9,6.29,18.64,11.57,26.23,19.75,4.78,5.15,9.36,10.4,12.43,16.74,1.79,3.7,4.55,5.14,8,3.28s3.07-5.11,1.39-8.25c-7.4-13.83-18.22-24.43-31.12-33.07-4.28-2.87-8.67-5.58-12.76-8.69-2.58-2-5.29-4.13-5.46-7.89.53-2.29,2.26-2.51,4.22-2.6,6.05-.3,11.44,2,16.68,4.47,14.23,6.6,25.78,16.94,36.66,27.89,3.5,3.52,7.9,6.69,9.67,11.78-8.66,4.79-13.9,11.59-13.16,22a22.7,22.7,0,0,0,3.62,10.21,92.93,92.93,0,0,1,13.17,39.33,50.84,50.84,0,0,1-4.48,26.7c-1.64,3.51-2.35,7,1.89,8.9s6.33-1.13,7.85-4.55c7.55-17,6.59-34.25,1.4-51.58a103.48,103.48,0,0,0-10.93-24.48c-2.67-4.35-3.3-8.61.41-12.74a59.73,59.73,0,0,1,4.74,6.33c12.57,22.23,17.11,46.54,17.12,71.64a102,102,0,0,1-6.64,36.47C287.55,211.27,279.59,224.41,266.76,234.18Z"/><path class="cls-5" d="M236.17,287.09c.67-8.92,1.88-17.85,1.88-26.77,0-14.59-1.1-29.14-4.36-43.45A170.82,170.82,0,0,0,227,194.23c-18.2,13.9-38.85,21.95-59.08,30.85-12.61,5.55-25.41,10.89-35.36,21-12.29,12.55-11,31.61,2.88,42.51a44.94,44.94,0,0,0,27.24,9.54c21,.61,41.8-1.18,62.15-6.8a17.82,17.82,0,0,1,3.46-.27c-14.9,7.87-30.93,12-47.55,13.94-12.11,1.45-24.26,2.12-36.27-.66-15.64-3.61-25.17-13.81-29.16-29-4.11-15.64,1-28.51,13.2-38.75,13.19-11.1,29.07-17.34,44.44-24.54,10.41-4.88,21.45-8.16,31.82-13.05a87.94,87.94,0,0,0,33.62-27.67c5.19,8.3,8.15,17,10.79,25.8,7.38,24.61,8.67,49.72,6,75.15a5.85,5.85,0,0,1-2.44,4.66C247.37,280.61,242.24,284.62,236.17,287.09Z"/><path class="cls-6" d="M266.76,234.18c12.83-9.77,20.79-22.91,26.46-37.74A102,102,0,0,0,299.86,160c0-25.1-4.55-49.42-17.12-71.64A59.73,59.73,0,0,0,278,82c4-4.61,8.9-5.45,14.07-2.34,4.76,2.87,7.65,7.38,9.95,12.19a136.75,136.75,0,0,1,13.07,50.29c3,46-11.92,85.49-43.6,118.79A27.57,27.57,0,0,1,269.3,263c-.74.63-1.55,1.17-3.08,2.31C267.4,254.45,266.92,244.31,266.76,234.18Z"/><path class="cls-6" d="M48.29,82c-8.12,8.25-11.15,19.1-14.74,29.57a135.77,135.77,0,0,0-7.16,43.5c-.1,28.83,7.34,55.17,29,75.88,1.44,1.37,2.69,2.94,4,4.42-.06,9.74-.56,19.49.6,29.7-4.87-2.86-7.93-6.86-11.06-10.62C9.67,207.13.41,154.61,22,96.85a42.68,42.68,0,0,1,8.35-14.08C36.05,76.52,43.25,76.25,48.29,82Z"/><path class="cls-5" d="M90.77,287.51c-6.16-2.64-11.5-6.61-17-10.37a5.46,5.46,0,0,1-2.57-4.06c-3.68-34.37-.27-67.66,15-99.16a24.4,24.4,0,0,1,1.64-2.46,93.27,93.27,0,0,0,29.26,25.34c11.52,6.36,23.91,9.83,38.19,11.55l-13.2,6.54c-14.41-4.11-28.53-8.91-40.59-18.24-2.29-1.78-2.77-.23-3.34,1.43a161,161,0,0,0-9,45.7C88.6,258.36,88.48,273,90.77,287.51Z"/><path class="cls-6" d="M95.22,91.21c.17,1.89-.67,3.53-1.19,5.29-7,23.76-3.67,45.5,12.71,64.69a70.57,70.57,0,0,0,42.7,24.44c23.22,4,44.17-1.16,62.22-16.6,14.12-12.07,22.4-27.08,23.7-46a75.18,75.18,0,0,0-1.84-22.54c-.39-1.68-2.24-3.58-.32-5.5,9.65,16.74,10.87,34.47,4.25,52.23-10.7,28.72-32.78,44.19-62.32,48.59-27.27,4.06-51.37-3.79-71-23.62C83.32,151.07,79,118.64,93.44,93.55A22.17,22.17,0,0,1,95.22,91.21Z"/><path class="cls-3" d="M90.77,287.51c-2.29-14.51-2.17-29.15-1.58-43.74a161,161,0,0,1,9-45.7c.57-1.66,1-3.21,3.34-1.43,12.05,9.33,26.17,14.13,40.59,18.24-6.87,4-13.72,8-19.89,13.12-20.4,16.83-24.72,41.93-11.15,64.69.81,1.35,2.37,2.41,2.14,4.31l-.08.1C105,295.38,97.83,291.62,90.77,287.51Z"/><path class="cls-6" d="M278.23,68.19c-1.77-5.1-6.18-8.26-9.67-11.78-10.88-10.95-22.43-21.3-36.66-27.89-5.24-2.43-10.63-4.77-16.68-4.47-2,.1-3.68.32-4.22,2.6-1.86-6.47,4-12.26,11.83-11.32a28.14,28.14,0,0,1,8.09,2.33c23.66,10.72,41.89,27.8,57.29,49.15Z"/><path class="cls-6" d="M116,25.07C106,21.89,97.66,26.51,89.56,31,73.69,39.85,61,52.59,49,65.93A7.44,7.44,0,0,0,48,68.19l-9.78-1.31a141.55,141.55,0,0,1,21.66-25.2A128.36,128.36,0,0,1,95.56,17.52c4.45-2,9.12-3.36,13.94-1.31C113.32,17.83,116.48,20.17,116,25.07Z"/><path class="cls-6" d="M75.16,142.57c-6.86-3.43-9.78-8.3-10.06-14.74s2.82-11.28,9.18-15.67C72.83,122.78,72.86,132.27,75.16,142.57Z"/><path class="cls-6" d="M251.29,142.28c2-9.92,2.41-19.33.73-28.88,5.16,1.6,8.67,6.44,9.14,12.31C261.74,132.87,258.56,138.52,251.29,142.28Z"/><path class="cls-6" d="M203.2,65a57,57,0,0,1-13.78,19.27c-2,1.84-4.05,4-7.21,3.92,6.59-6.89,11.14-14.75,11.55-24.55.1-2.48,1.08-3.24,3.38-1.9C199.13,62.85,201.18,63.88,203.2,65Z"/><path class="cls-4" d="M157.14,27c.74,2.61.42,5.24.14,7.86-.81,7.75-2.65,9.25-11.48,8.89,3.52-5.92,3.74-12.26,3.48-18.67A13.35,13.35,0,0,1,157.14,27Z"/><path class="cls-4" d="M177,25.1c-.2,6.29-.1,12.53,3.24,18.24-7.21,1.46-10.09-.34-11.07-7-.46-3.08-.89-6.22,0-9.33C171.66,26,174.18,24.93,177,25.1Z"/><path class="cls-6" d="M137.43,23c-3.6.15-7.26-.2-10.71,1.25-.53-4.24-1.36-8.38-4.46-11.83C129.36,12.39,134.79,16.26,137.43,23Z"/><path class="cls-6" d="M199.22,24c-3.38-1.09-6.88-.93-10.36-1,2.6-6.68,7.87-10.47,15-10.66C201.69,16,199.36,19.6,199.22,24Z"/><path class="cls-6" d="M177,25.1c-2.82-.17-5.33.91-7.86,1.91.84-7.65,5.13-12.11,14.47-14.63C180.16,16.3,177.82,20.34,177,25.1Z"/><path class="cls-6" d="M157.14,27a13.35,13.35,0,0,0-7.86-1.92A24.93,24.93,0,0,0,143,12.85C151.09,13.93,156.32,19.24,157.14,27Z"/><path class="cls-6" d="M232.14,93.1a1.76,1.76,0,0,1-1.07-1.93A1.79,1.79,0,0,1,232.14,93.1Z"/><path class="cls-3" d="M113.21,297l.73.37-.28.41-.53-.68Z"/><path class="cls-1" d="M162.82,168.18c-9.27-.47-17.1-3.76-22.22-11.95-2.72-4.36-2.13-8.7,1.39-10.43,4.32-2.13,7-.09,9.29,3.76,5.07,8.34,18.75,8.11,24-.18,2.81-4.4,5.91-5.56,9.35-3.49s3.95,5.76,1.33,10.08C180.77,164.62,172.59,167.88,162.82,168.18Z"/><path class="cls-1" d="M202.11,134.09c-7.71-.42-14.27-2.74-19.55-8.16-2.91-3-3.3-6.33-.42-9.27,2.71-2.76,6-2.36,9,0,8.93,7.13,15.73,6.55,23.07-2,2.53-2.93,5.58-3.79,8.77-1.36s3.22,5.69,1.18,8.87C218.93,130.33,211.1,133.62,202.11,134.09Z"/><path class="cls-1" d="M124.08,134.07c-8.86-.47-16.38-3.71-21.62-11.26-2.56-3.69-2.11-7.68,1.09-9.65,3.65-2.24,6.46-1,9,2.23,5.75,7.39,14.81,8.21,21.83,2.16,3.73-3.22,7.57-3.49,10.06-.71s2,6.51-1.65,10C137.56,131.77,131.19,133.76,124.08,134.07Z"/></g></g></svg>